Coordinates
version=1
nRows=10
nColumns=40
inDegrees=yes

Units are S.I. units (second, meters, Newtons, ...)
Angles are in degrees.

endheader
time	pelvis_tilt	pelvis_list	pelvis_rotation	pelvis_tx	pelvis_ty	pelvis_tz	hip_flexion_r	hip_adduction_r	hip_rotation_r	knee_angle_r	knee_angle_r_beta	ankle_angle_r	subtalar_angle_r	mtp_angle_r	hip_flexion_l	hip_adduction_l	hip_rotation_l	knee_angle_l	knee_angle_l_beta	ankle_angle_l	subtalar_angle_l	mtp_angle_l	lumbar_extension	lumbar_bending	lumbar_rotation	arm_flex_r	arm_add_r	arm_rot_r	elbow_flex_r	pro_sup_r	wrist_flex_r	wrist_dev_r	arm_flex_l	arm_add_l	arm_rot_l	elbow_flex_l	pro_sup_l	wrist_flex_l	wrist_dev_l
      3.47000000	     -2.49788550	     -4.69987986	     -0.72159338	      1.08730394	      0.93649289	      0.43835349	     29.01533684	     -5.19389452	     -3.40097449	     67.74813823	     67.74813823	     -3.79247806	    -10.49282997	     -2.94051057	     11.62725516	     -5.49864722	     -8.12022018	     20.21037352	     20.21037352	     12.33751643	    -13.02400350	      0.74933609	    -12.29903818	      4.76583777	      0.27032255	     -4.05370115	    -18.21750355	    -25.36745469	     24.01297366	     46.67758611	      0.00000000	      0.00000000	      5.36989143	    -15.04750394	     -2.70213762	     77.87436791	     47.50236848	      0.00000000	      0.00000000
      3.48278571	     -2.47564549	     -4.73055882	     -1.38040871	      1.08662055	      0.93761246	      0.43816861	     29.62559104	     -4.95783169	     -3.57532442	     66.30811283	     66.30811283	     -3.22414975	    -11.54151156	     -2.81163412	     10.65642231	     -5.45566760	     -8.62377713	     19.26863459	     19.26863459	     12.31608627	    -13.07433354	      1.01633894	    -12.49980171	      4.74262838	      0.31289863	     -4.44205683	    -17.98984718	    -25.40706160	     23.86645953	     46.68649837	      0.00000000	      0.00000000	      6.07737223	    -15.21602947	     -2.97375170	     78.61068347	     47.54253972	      0.00000000	      0.00000000
      3.49557143	     -2.50691513	     -4.79125388	     -2.01446794	      1.08583052	      0.93850592	      0.43797573	     30.20582997	     -4.72389333	     -3.84765791	     64.69150572	     64.69150572	     -2.63870227	    -12.26488545	     -2.70382834	      9.82734073	     -5.44221348	     -9.08839069	     18.45339405	     18.45339405	     12.30475250	    -13.14299286	      1.18922300	    -12.66197445	      4.76886426	      0.31314901	     -4.82925969	    -17.74647209	    -25.49592435	     23.86172671	     46.69306496	      0.00000000	      0.00000000	      6.71486170	    -15.41116126	     -3.24957701	     79.47103749	     47.58517165	      0.00000000	      0.00000000
      3.50835714	     -2.66211425	     -4.90709098	     -2.61261045	      1.08489643	      0.93908650	      0.43793027	     30.81385612	     -4.44285724	     -4.22025375	     62.83484699	     62.83484699	     -2.01943078	    -12.62561882	     -2.56526898	      9.25615070	     -5.51373634	     -9.48762586	     17.83892684	     17.83892684	     12.33826073	    -13.21550628	      1.30586471	    -12.71047425	      4.80000690	      0.23059214	     -5.10436582	    -17.45803606	    -25.55077098	     23.88176998	     46.69453167	      0.00000000	      0.00000000	      7.38455741	    -15.72952374	     -3.51545648	     80.11069921	     47.62116493	      0.00000000	      0.00000000
      3.52114286	     -2.60745091	     -4.94623476	     -3.23971725	      1.08413465	      0.93986243	      0.43788357	     31.04958676	     -4.11713147	     -4.37868675	     60.63362346	     60.63362346	     -1.38859280	    -12.93065846	     -2.29371882	      8.35254797	     -5.45692612	     -9.96925841	     17.04018771	     17.04018771	     12.30947352	    -13.31170584	      1.38293144	    -12.96906256	      4.84118812	      0.28766326	     -5.47303689	    -17.18601333	    -25.75557860	     24.16732533	     46.69877326	      0.00000000	      0.00000000	      7.89468490	    -15.86374525	     -3.85958889	     81.25911717	     47.67485235	      0.00000000	      0.00000000
      3.53392857	     -2.85177458	     -5.03823287	     -3.80023281	      1.08301250	      0.93993838	      0.43802363	     31.52740518	     -3.78659225	     -4.68948174	     58.15593932	     58.15593932	     -0.77427742	    -12.73173578	     -2.14381432	      8.05553803	     -5.53252837	    -10.36151508	     16.70075378	     16.70075378	     12.38579545	    -13.47288345	      1.41209778	    -12.88359462	      4.91018920	      0.17659548	     -5.58025100	    -16.82441258	    -25.78521062	     24.23998323	     46.69607896	      0.00000000	      0.00000000	      8.53557249	    -16.19936183	     -4.09182353	     81.71447241	     47.70423157	      0.00000000	      0.00000000
      3.54671429	     -2.83993793	     -5.18716280	     -4.33379403	      1.08206846	      0.94040955	      0.43830788	     31.48364144	     -3.32657689	     -4.93201965	     55.16308871	     55.16308871	     -0.16279778	    -12.31496435	     -2.04300834	      7.29590640	     -5.62204005	    -10.76160382	     16.03037494	     16.03037494	     12.34302407	    -13.49620838	      1.31393585	    -13.17374309	      5.00834175	      0.19546167	     -5.84255712	    -16.47422061	    -26.08515173	     24.79446595	     46.69786172	      0.00000000	      0.00000000	      8.98071078	    -16.30602176	     -4.53098988	     82.85251354	     47.76649455	      0.00000000	      0.00000000
      3.55950000	     -3.06001176	     -5.37189437	     -4.82067128	      1.08090311	      0.94026174	      0.43873181	     31.55805360	     -2.81275195	     -5.21459123	     51.82857039	     51.82857039	      0.45897459	    -11.53099932	     -1.97010357	      7.04879156	     -5.81871926	    -11.05982592	     15.81785888	     15.81785888	     12.45896586	    -13.67050031	      1.24380005	    -13.14787494	      5.18943672	      0.11942483	     -5.79459058	    -16.08429413	    -26.12445927	     24.96316204	     46.69348998	      0.00000000	      0.00000000	      9.56143271	    -16.55321273	     -4.73011685	     83.23996738	     47.79328646	      0.00000000	      0.00000000
      3.57228571	     -3.24016788	     -5.53940193	     -5.27549340	      1.07974542	      0.94006050	      0.43927902	     31.39655851	     -2.29590630	     -5.47778094	     48.07887408	     48.07887408	      1.03402941	    -10.41010033	     -1.98610231	      6.75980563	     -6.00801141	    -11.38543451	     15.60658209	     15.60658209	     12.58802548	    -13.76584346	      1.11681188	    -13.19271407	      5.33461475	      0.09912907	     -5.69427307	    -15.66783585	    -26.15921068	     25.17636069	     46.68723593	      0.00000000	      0.00000000	     10.14105881	    -16.74733181	     -4.93140711	     83.64572454	     47.82084807	      0.00000000	      0.00000000
      3.58507143	     -3.47430729	     -5.68728331	     -5.69768416	      1.07858350	      0.93965521	      0.43993716	     31.11688417	     -1.76575231	     -5.71297692	     43.98937891	     43.98937891	      1.54592053	     -9.03258060	     -1.98652252	      6.56779587	     -6.19712034	    -11.69788648	     15.46356200	     15.46356200	     12.71814399	    -13.84445768	      0.95144800	    -13.16839779	      5.46871689	      0.07794638	     -5.51071465	    -15.18792519	    -26.15712144	     25.39521716	     46.67775511	      0.00000000	      0.00000000	     10.71834787	    -16.93868938	     -5.09722035	     83.96678010	     47.84405912	      0.00000000	      0.00000000
